HIERARCHY
ROOT Hips
{
	OFFSET 0.00000 0.00000 0.00000
	CHANNELS 6 Xposition Yposition Zposition Zrotation Yrotation Xrotation 
	JOINT LHipJoint
	{
		OFFSET 0 0 0
		CHANNELS 3 Zrotation Yrotation Xrotation
		JOINT LeftUpLeg
		{
			OFFSET 1.64577 -1.42384 0.94276
			CHANNELS 3 Zrotation Yrotation Xrotation
			JOINT LeftLeg
			{
				OFFSET 2.11538 -5.81197 0.00000
				CHANNELS 3 Zrotation Yrotation Xrotation
				JOINT LeftFoot
				{
					OFFSET 2.36541 -6.49893 0.00000
					CHANNELS 3 Zrotation Yrotation Xrotation
					JOINT LeftToeBase
					{
						OFFSET 0.17759 -0.48793 1.73865
						CHANNELS 3 Zrotation Yrotation Xrotation
						End Site
						{
							OFFSET 0.00000 -0.00000 0.91205
						}
					}
				}
			}
		}
	}
	JOINT RHipJoint
	{
		OFFSET 0 0 0
		CHANNELS 3 Zrotation Yrotation Xrotation
		JOINT RightUpLeg
		{
			OFFSET -1.43750 -1.42384 0.94276
			CHANNELS 3 Zrotation Yrotation Xrotation
			JOINT RightLeg
			{
				OFFSET -2.10480 -5.78291 0.00000
				CHANNELS 3 Zrotation Yrotation Xrotation
				JOINT RightFoot
				{
					OFFSET -2.34880 -6.45329 0.00000
					CHANNELS 3 Zrotation Yrotation Xrotation
					JOINT RightToeBase
					{
						OFFSET -0.22842 -0.62757 1.80469
						CHANNELS 3 Zrotation Yrotation Xrotation
						End Site
						{
							OFFSET -0.00000 -0.00000 0.95886
						}
					}
				}
			}
		}
	}
	JOINT LowerBack
	{
		OFFSET 0 0 0
		CHANNELS 3 Zrotation Yrotation Xrotation
		JOINT Spine
		{
			OFFSET 0.06217 1.93758 -0.49272
			CHANNELS 3 Zrotation Yrotation Xrotation
			JOINT Spine1
			{
				OFFSET -0.03114 2.03621 -0.05830
				CHANNELS 3 Zrotation Yrotation Xrotation
				JOINT Neck
				{
					OFFSET 0 0 0
					CHANNELS 3 Zrotation Yrotation Xrotation
					JOINT Neck1
					{
						OFFSET 0.04421 1.41010 0.26562
						CHANNELS 3 Zrotation Yrotation Xrotation
						JOINT Head
						{
							OFFSET -0.13407 1.43847 0.06181
							CHANNELS 3 Zrotation Yrotation Xrotation
							End Site
							{
								OFFSET -0.04980 1.45844 -0.00689
							}
						}
					}
				}
				JOINT LeftShoulder
				{
					OFFSET 0 0 0
					CHANNELS 3 Zrotation Yrotation Xrotation
					JOINT LeftArm
					{
						OFFSET 2.18382 1.47753 -0.35694
						CHANNELS 3 Zrotation Yrotation Xrotation
						JOINT LeftForeArm
						{
							OFFSET 5.05460 -0.00000 0.00000
							CHANNELS 3 Zrotation Yrotation Xrotation
							JOINT LeftHand
							{
								OFFSET 3.39013 -0.00000 0.00000
								CHANNELS 3 Zrotation Yrotation Xrotation
								JOINT LeftFingerBase
								{
									OFFSET 0 0 0
									CHANNELS 3 Zrotation Yrotation Xrotation
									JOINT LeftHandIndex1
									{
										OFFSET 0.57242 -0.00000 -0.00000
										CHANNELS 3 Zrotation Yrotation Xrotation
										End Site
										{
											OFFSET 0.46150 -0.00000 -0.00000
										}
									}
								}
								JOINT LThumb
								{
									OFFSET 0 0 0
									CHANNELS 3 Zrotation Yrotation Xrotation
									End Site
									{
										OFFSET 0.46855 -0.00000 0.46855
									}
								}
							}
						}
					}
				}
				JOINT RightShoulder
				{
					OFFSET 0 0 0
					CHANNELS 3 Zrotation Yrotation Xrotation
					JOINT RightArm
					{
						OFFSET -2.06033 1.72839 -0.47437
						CHANNELS 3 Zrotation Yrotation Xrotation
						JOINT RightForeArm
						{
							OFFSET -5.07010 -0.00000 0.00000
							CHANNELS 3 Zrotation Yrotation Xrotation
							JOINT RightHand
							{
								OFFSET -3.14957 -0.00000 -0.00000
								CHANNELS 3 Zrotation Yrotation Xrotation
								JOINT RightFingerBase
								{
									OFFSET 0 0 0
									CHANNELS 3 Zrotation Yrotation Xrotation
									JOINT RightHandIndex1
									{
										OFFSET -0.71819 -0.00000 -0.00000
										CHANNELS 3 Zrotation Yrotation Xrotation
										End Site
										{
											OFFSET -0.57902 -0.00000 -0.00000
										}
									}
								}
								JOINT RThumb
								{
									OFFSET 0 0 0
									CHANNELS 3 Zrotation Yrotation Xrotation
									End Site
									{
										OFFSET -0.58786 -0.00000 0.58786
									}
								}
							}
						}
					}
				}
			}
		}
	}
}
MOTION
Frames: 11
Frame Time: .0083333
0.2829 25.4364 2.7690 -17.3524 -71.5869 19.7628 0.0000 0.0000 0.0000 -20.4963 -8.4089 -7.6753 3.3023 11.1690 32.8521 2.2110 1.0454 -28.5265 0.0001 -0.0541 -0.1487 0.0000 0.0000 0.0000 27.6530 7.0842 -9.8490 -3.8520 -11.9608 35.5933 -1.2900 -13.4525 -30.0592 -0.4428 4.2695 -11.8361 0.0389 2.0795 11.3448 -0.7032 2.5769 5.0038 -1.0578 1.2240 -1.1022 8.2991 3.7217 -9.5850 -6.8231 4.5942 9.5928 -3.1433 2.1449 4.7960 0.0000 0.0000 0.0000 -76.3370 -4.6949 44.3614 115.1587 -57.4677 -81.6029 -0.0000 0.0000 -3.9278 44.3120 1.4324 1.3979 -7.1250 0.0000 -0.0000 14.1593 31.7674 -4.7103 0.0000 0.0000 0.0000 75.4321 16.4892 70.6949 -24.3531 35.5354 -7.9108 0.0000 -0.0000 -0.0985 -59.9391 31.9114 -42.4065 7.1250 -0.0000 -0.0000 -14.8767 19.7865 -19.5543
0.2814 25.4328 2.7874 -17.5283 -71.7712 19.9065 0.0000 0.0000 0.0000 -20.5787 -8.3097 -7.6134 3.3018 11.1682 32.8494 2.1733 1.4218 -28.4225 0.0141 -0.7667 -2.1071 0.0000 0.0000 0.0000 27.5700 7.0135 -9.8721 -3.8688 -11.9837 35.6744 -1.2841 -13.4215 -29.9928 -0.4695 4.3946 -12.1896 0.0366 2.0776 11.3232 -0.6945 2.5731 5.0381 -1.0454 1.2216 -1.0554 8.2549 3.7631 -9.8250 -6.4302 4.6162 10.3726 -3.0079 2.1734 5.0684 0.0000 -0.0000 0.0000 -76.4559 -4.5220 44.3157 115.3573 -57.4252 -81.7703 -0.0000 0.0000 -3.8990 44.4494 1.5055 1.4763 -7.1250 0.0000 -0.0000 14.2821 31.8677 -4.7178 0.0000 -0.0000 0.0000 75.3349 16.5665 70.8107 -24.3934 35.5776 -7.9343 0.0000 -0.0000 -0.1238 -59.9252 32.0144 -42.4726 7.1250 -0.0000 -0.0000 -14.8319 19.8935 -19.5081
0.2813 25.4310 2.8096 -17.3105 -71.8793 19.7257 0.0000 0.0000 0.0000 -20.7825 -8.3146 -7.5339 3.2889 11.1486 32.7828 2.1227 1.8048 -28.2415 0.0492 -1.4314 -3.9366 0.0000 0.0000 0.0000 27.3292 6.8067 -10.0062 -3.8905 -12.0132 35.7788 -1.2894 -13.2773 -29.9008 -0.4890 4.4836 -12.4413 0.0178 2.0129 11.2452 -0.7093 2.4855 5.0646 -1.0363 1.1780 -0.9872 8.1914 3.8230 -10.0775 -6.0147 4.6583 11.2463 -2.8600 2.2138 5.3742 -0.0000 0.0000 0.0000 -76.5738 -4.3296 44.2236 115.5486 -57.3839 -81.9314 -0.0000 0.0000 -3.9070 44.6403 1.6277 1.6068 -7.1250 0.0000 -0.0000 14.4571 32.0359 -4.7185 -0.0000 0.0000 0.0000 75.2441 16.6658 70.9431 -24.4202 35.6055 -7.9499 0.0000 -0.0000 -0.0873 -59.8454 32.1765 -42.5098 7.1250 -0.0000 -0.0000 -14.7319 20.0191 -19.3879
0.2814 25.4305 2.8319 -16.9981 -71.9834 19.4759 0.0000 0.0000 0.0000 -21.0162 -8.3509 -7.4428 3.2662 11.1140 32.6655 2.0839 2.0623 -28.0901 0.0783 -1.8053 -4.9678 0.0000 0.0000 0.0000 27.0531 6.6294 -10.1633 -3.9152 -12.0466 35.8972 -1.3090 -13.0734 -29.8533 -0.4916 4.4957 -12.4755 -0.0266 1.9291 11.1447 -0.7194 2.3710 5.0857 -1.0045 1.1207 -0.9141 8.1286 3.8992 -10.3315 -5.6001 4.7170 12.1905 -2.7103 2.2639 5.7056 0.0000 0.0000 0.0000 -76.6875 -4.1139 44.0930 115.7428 -57.3416 -82.0950 -0.0000 0.0000 -3.9476 44.8402 1.7921 1.7812 -7.1250 0.0000 -0.0000 14.6483 32.2624 -4.7019 0.0000 0.0000 0.0000 75.1602 16.7808 71.0646 -24.4360 35.6219 -7.9591 0.0000 0.0000 0.0731 -59.6895 32.3337 -42.4554 7.1250 -0.0000 -0.0000 -14.5948 20.0837 -19.2073
0.2826 25.4315 2.8566 -16.2943 -72.0403 18.9177 0.0000 0.0000 0.0000 -21.3655 -8.4492 -7.3864 3.2372 11.0695 32.5148 2.0686 2.1090 -28.0082 0.0782 -1.8044 -4.9653 0.0000 0.0000 0.0000 26.6260 6.3363 -10.4284 -3.9405 -12.0808 36.0185 -1.3379 -12.7664 -29.7801 -0.4887 4.4823 -12.4377 -0.1075 1.8099 10.9811 -0.7589 2.2074 5.0915 -0.9755 1.0393 -0.8236 8.0547 3.9747 -10.5660 -5.1754 4.7692 13.1620 -2.5556 2.3130 6.0436 -0.0000 0.0000 0.0000 -76.7828 -3.8829 43.9542 115.9349 -57.2993 -82.2567 -0.0000 0.0000 -4.0216 45.0611 1.9249 1.9279 -7.1250 0.0000 -0.0000 14.8509 32.4474 -4.7023 -0.0000 0.0000 0.0000 75.0818 16.9015 71.1575 -24.4464 35.6328 -7.9651 0.0000 0.0000 0.3296 -59.5002 32.4286 -42.3141 7.1250 -0.0000 -0.0000 -14.4636 20.0539 -19.0213
0.2834 25.4327 2.8781 -15.8112 -72.1533 18.5517 0.0000 0.0000 0.0000 -21.6430 -8.5007 -7.3389 3.2106 11.0284 32.3758 2.0888 1.9160 -28.0636 0.0452 -1.3719 -3.7728 0.0000 0.0000 0.0000 26.2923 6.1693 -10.6215 -3.9610 -12.1083 36.1160 -1.3709 -12.4882 -29.7632 -0.4740 4.4154 -12.2485 -0.1786 1.7258 10.8474 -0.7767 2.0912 5.0959 -0.9365 0.9812 -0.7502 7.9756 4.0345 -10.7661 -4.7567 4.7962 14.1307 -2.4038 2.3511 6.3756 0.0000 -0.0000 0.0000 -76.8491 -3.6620 43.8353 116.1043 -57.2617 -82.3992 -0.0000 0.0000 -4.1195 45.2859 1.9860 2.0047 -7.1250 0.0000 -0.0000 15.0425 32.5352 -4.7338 0.0000 -0.0000 0.0000 75.0016 17.0147 71.2558 -24.4618 35.6488 -7.9741 0.0000 0.0000 0.5098 -59.3593 32.4757 -42.1907 7.1250 -0.0000 -0.0000 -14.3747 20.0055 -18.8914
0.2830 25.4339 2.8954 -15.6503 -72.3290 18.4602 0.0000 0.0000 0.0000 -21.8115 -8.5047 -7.2998 3.1933 11.0016 32.2854 2.1444 1.4859 -28.2602 0.0076 -0.5640 -1.5498 0.0000 0.0000 0.0000 26.1007 6.1601 -10.7016 -3.9713 -12.1221 36.1652 -1.3954 -12.3189 -29.7838 -0.4609 4.3549 -12.0773 -0.2244 1.6889 10.7528 -0.7653 2.0395 5.1026 -0.8903 0.9548 -0.6947 7.9234 4.0800 -10.9485 -4.3815 4.8001 15.1142 -2.2720 2.3777 6.7123 0.0000 -0.0000 0.0000 -76.8905 -3.4531 43.7511 116.2478 -57.2296 -82.5199 -0.0000 0.0000 -4.2104 45.4958 1.9642 1.9973 -7.1250 0.0000 -0.0000 15.2051 32.5089 -4.7982 0.0000 -0.0000 0.0000 74.9182 17.1145 71.3613 -24.4834 35.6713 -7.9867 0.0000 0.0000 0.5740 -59.2892 32.4103 -42.0601 7.1250 -0.0000 -0.0000 -14.3631 19.8815 -18.8576
0.2816 25.4348 2.9083 -15.8385 -72.5776 18.6573 0.0000 0.0000 0.0000 -21.8705 -8.4540 -7.2615 3.1884 10.9939 32.2594 2.2137 0.9831 -28.5219 0.0022 0.3035 0.8339 0.0000 0.0000 0.0000 26.0564 6.3116 -10.6519 -3.9707 -12.1213 36.1625 -1.4056 -12.2890 -29.8269 -0.4553 4.3288 -12.0035 -0.2393 1.7069 10.7063 -0.7269 2.0626 5.1152 -0.8431 0.9656 -0.6580 7.8862 4.1084 -11.0961 -4.0392 4.7784 16.0753 -2.1557 2.3919 7.0383 0.0000 -0.0000 0.0000 -76.8799 -3.2724 43.7104 116.3604 -57.2043 -82.6145 -0.0000 0.0000 -4.3090 45.6888 1.9133 1.9587 -7.1250 0.0000 -0.0000 15.3479 32.4422 -4.8718 0.0000 -0.0000 0.0000 74.8398 17.1942 71.4719 -24.5049 35.6937 -7.9993 0.0000 0.0000 0.4774 -59.3139 32.3229 -42.0194 7.1250 -0.0000 -0.0000 -14.4077 19.8003 -18.9074
0.2784 25.4351 2.9154 -16.7302 -72.8866 19.4615 0.0000 0.0000 0.0000 -21.7087 -8.3359 -7.2045 3.1929 11.0010 32.2833 2.2806 0.5263 -28.7884 0.0266 1.0533 2.8954 0.0000 0.0000 0.0000 26.2919 6.7048 -10.4259 -3.9609 -12.1082 36.1157 -1.4023 -12.4485 -29.9375 -0.4527 4.3163 -11.9682 -0.1596 1.7812 10.7274 -0.6282 2.1682 5.1391 -0.7977 1.0178 -0.6443 7.8873 4.1291 -11.2087 -3.7745 4.7490 17.0042 -2.0718 2.3995 7.3530 -0.0000 -0.0000 0.0000 -76.8230 -3.1245 43.7038 116.4234 -57.1900 -82.6675 -0.0000 0.0000 -4.4174 45.8728 1.8501 1.9063 -7.1250 0.0000 -0.0000 15.4805 32.3580 -4.9493 -0.0000 -0.0000 0.0000 74.7765 17.2601 71.5844 -24.5162 35.7053 -8.0058 0.0000 0.0000 0.2587 -59.4248 32.2435 -42.0827 7.1250 -0.0000 -0.0000 -14.4932 19.7901 -19.0239
0.2757 25.4351 2.9219 -17.5895 -73.2174 20.2279 0.0000 0.0000 0.0000 -21.5765 -8.2191 -7.1499 3.2019 11.0149 32.3302 2.3228 0.2669 -28.9669 0.0512 1.4598 4.0149 0.0000 0.0000 0.0000 26.5105 7.1142 -10.1784 -3.9473 -12.0900 36.0510 -1.3853 -12.6704 -30.0117 -0.4591 4.3462 -12.0528 -0.0912 1.8668 10.7712 -0.5397 2.2872 5.1614 -0.7587 1.0763 -0.6443 7.9106 4.1575 -11.2975 -3.5712 4.7339 17.8906 -2.0103 2.4110 7.6554 0.0000 -0.0000 0.0000 -76.7570 -3.0033 43.7111 116.4302 -57.1885 -82.6732 -0.0000 0.0000 -4.5183 46.0538 1.7902 1.8563 -7.1250 0.0000 -0.0000 15.6110 32.2778 -5.0253 0.0000 -0.0000 0.0000 74.7280 17.3208 71.6957 -24.5141 35.7032 -8.0046 0.0000 -0.0000 -0.0066 -59.5956 32.1859 -42.2316 7.1250 -0.0000 -0.0000 -14.6012 19.8481 -19.1818
0.2744 25.4357 2.9323 -18.0065 -73.4600 20.6138 0.0000 0.0000 0.0000 -21.5750 -8.1731 -7.1156 3.2096 11.0269 32.3705 2.3276 0.2531 -28.9922 0.0513 1.4616 4.0198 0.0000 0.0000 0.0000 26.5629 7.3137 -10.0473 -3.9341 -12.0722 35.9878 -1.3644 -12.8238 -30.0043 -0.4737 4.4139 -12.2440 -0.0096 1.9020 10.7827 -0.4959 2.3411 5.1742 -0.7653 1.1036 -0.6351 7.9384 4.1889 -11.3358 -3.4286 4.7338 18.6819 -1.9686 2.4252 7.9224 0.0000 -0.0000 0.0000 -76.6881 -2.9024 43.7170 116.3962 -57.1962 -82.6446 -0.0000 0.0000 -4.6216 46.2366 1.7270 1.8023 -7.1250 0.0000 -0.0000 15.7419 32.1927 -5.1039 0.0000 -0.0000 0.0000 74.6944 17.3806 71.7850 -24.5028 35.6915 -7.9980 0.0000 -0.0000 -0.2295 -59.7605 32.1800 -42.4153 7.1250 -0.0000 -0.0000 -14.6873 19.9612 -19.3176
